{
  "source": "C:\\Users\\Peter\\Desktop\\stuff\\MIUN\\quantitative_research\\video_compression\\videos\\BVI-HD\\Toys_1920x1080_30fps.mp4",
  "output": "C:\\Users\\Peter\\Desktop\\stuff\\MIUN\\quantitative_research\\video_compression\\compressed_videos\\BVI-HD\\h264\\12\\Toys_1920x1080_30fps_h264.mp4",
  "codec": "h264",
  "ok": "Input #0, mov,mp4,m4a,3gp,3g2,mj2, from 'C:\\Users\\Peter\\Desktop\\stuff\\MIUN\\quantitative_research\\video_compression\\videos\\BVI-HD\\Toys_1920x1080_30fps.mp4':\n  Metadata:\n    major_brand     : isom\n    minor_version   : 512\n    compatible_brands: isomiso2avc1mp41\n    encoder         : Lavf54.28.101\n  Duration: 00:00:05.00, start: 0.000000, bitrate: 270887 kb/s\n  Stream #0:0[0x1](und): Video: h264 (High 4:4:4 Predictive) (avc1 / 0x31637661), yuv420p(progressive), 1920x1080, 270883 kb/s, 30 fps, 30 tbr, 30 tbn (default)\n    Metadata:\n      handler_name    : VideoHandler\n      vendor_id       : [0][0][0][0]\n[out#0/mp4 @ 000002ef04529a80] Codec AVOption b:a (set bitrate (in bits/s)) has not been used for any stream. The most likely reason is either wrong type (e.g. a video option with no video streams) or that it is a private option of some decoder which was not actually used for any stream.\nStream mapping:\n  Stream #0:0 -> #0:0 (h264 (native) -> h264 (libx264))\nPress [q] to stop, [?] for help\n[libx264 @ 000002ef052875c0] using cpu capabilities: MMX2 SSE2Fast SSSE3 SSE4.2 AVX FMA3 BMI2 AVX2\n[libx264 @ 000002ef052875c0] profile High, level 5.0, 4:2:0, 8-bit\n[libx264 @ 000002ef052875c0] 264 - core 165 r3222 b35605a - H.264/MPEG-4 AVC codec - Copyleft 2003-2025 - http://www.videolan.org/x264.html - options: cabac=1 ref=5 deblock=1:0:0 analyse=0x3:0x113 me=hex subme=8 psy=1 psy_rd=1.00:0.00 mixed_ref=1 me_range=16 chroma_me=1 trellis=2 8x8dct=1 cqm=0 deadzone=21,11 fast_pskip=1 chroma_qp_offset=-2 threads=18 lookahead_threads=3 sliced_threads=0 nr=0 decimate=1 interlaced=0 bluray_compat=0 constrained_intra=0 bframes=3 b_pyramid=2 b_adapt=1 b_bias=0 direct=3 weightb=1 open_gop=0 weightp=2 keyint=250 keyint_min=25 scenecut=40 intra_refresh=0 rc_lookahead=50 rc=cbr mbtree=1 bitrate=12000 ratetol=1.0 qcomp=0.60 qpmin=0 qpmax=69 qpstep=4 vbv_maxrate=12000 vbv_bufsize=12000 nal_hrd=none filler=0 ip_ratio=1.40 aq=1:1.00\nOutput #0, mp4, to 'C:\\Users\\Peter\\Desktop\\stuff\\MIUN\\quantitative_research\\video_compression\\compressed_videos\\BVI-HD\\h264\\12\\Toys_1920x1080_30fps_h264.mp4':\n  Metadata:\n    major_brand     : isom\n    minor_version   : 512\n    compatible_brands: isomiso2avc1mp41\n    encoder         : Lavf62.3.100\n  Stream #0:0(und): Video: h264 (avc1 / 0x31637661), yuv420p(tv, progressive), 1920x1080, q=2-31, 12000 kb/s, 30 fps, 15360 tbn (default)\n    Metadata:\n      encoder         : Lavc62.11.100 libx264\n      handler_name    : VideoHandler\n      vendor_id       : [0][0][0][0]\n    Side data:\n      cpb: bitrate max/min/avg: 12000000/0/12000000 buffer size: 12000000 vbv_delay: N/A\nframe=    0 fps=0.0 q=0.0 size=       0KiB time=N/A bitrate=N/A speed=N/A elapsed=0:00:00.53    \nframe=    0 fps=0.0 q=0.0 size=       0KiB time=N/A bitrate=N/A speed=N/A elapsed=0:00:01.15    \nframe=    0 fps=0.0 q=0.0 size=       0KiB time=N/A bitrate=N/A speed=N/A elapsed=0:00:01.69    \nframe=    0 fps=0.0 q=0.0 size=       0KiB time=N/A bitrate=N/A speed=N/A elapsed=0:00:02.29    \nframe=   10 fps=3.5 q=27.0 size=     512KiB time=00:00:00.13 bitrate=31460.2kbits/s speed=0.0468x elapsed=0:00:02.84    \nframe=   21 fps=6.0 q=26.0 size=     768KiB time=00:00:00.63 bitrate=9934.5kbits/s speed=0.18x elapsed=0:00:03.50    \nframe=   21 fps=5.1 q=26.0 size=     768KiB time=00:00:00.63 bitrate=9934.5kbits/s speed=0.154x elapsed=0:00:04.11    \nframe=   34 fps=7.3 q=26.0 size=    1280KiB time=00:00:00.93 bitrate=11235.2kbits/s speed= 0.2x elapsed=0:00:04.66    \nframe=   40 fps=7.6 q=26.0 size=    1536KiB time=00:00:01.26 bitrate=9934.2kbits/s speed=0.242x elapsed=0:00:05.23    \nframe=   52 fps=9.0 q=26.0 size=    2048KiB time=00:00:01.66 bitrate=10066.6kbits/s speed=0.29x elapsed=0:00:05.75    \nframe=   60 fps=9.6 q=26.0 size=    2304KiB time=00:00:01.93 bitrate=9762.8kbits/s speed=0.308x elapsed=0:00:06.28    \nframe=   73 fps= 11 q=26.0 size=    2816KiB time=00:00:02.33 bitrate=9886.7kbits/s speed=0.342x elapsed=0:00:06.81    \nframe=   88 fps= 12 q=26.0 size=    3584KiB time=00:00:02.86 bitrate=10242.0kbits/s speed=0.39x elapsed=0:00:07.35    \nframe=  100 fps= 13 q=26.0 size=    4096KiB time=00:00:03.26 bitrate=10271.9kbits/s speed=0.414x elapsed=0:00:07.88    \nframe=  112 fps= 13 q=25.0 size=    4608KiB time=00:00:03.66 bitrate=10295.2kbits/s speed=0.433x elapsed=0:00:08.47    \nframe=  128 fps= 14 q=22.0 size=    5120KiB time=00:00:04.10 bitrate=10230.1kbits/s speed=0.455x elapsed=0:00:09.01    \nframe=  140 fps= 15 q=-1.0 size=    5632KiB time=00:00:04.60 bitrate=10029.9kbits/s speed=0.482x elapsed=0:00:09.55    \n[mp4 @ 000002ef04531480] Starting second pass: moving the moov atom to the beginning of the file\n[out#0/mp4 @ 000002ef04529a80] video:6293KiB audio:0KiB subtitle:0KiB other streams:0KiB global headers:0KiB muxing overhead: 0.042258%\nframe=  150 fps= 15 q=-1.0 Lsize=    6295KiB time=00:00:04.93 bitrate=10453.8kbits/s speed= 0.5x elapsed=0:00:09.85    \n[libx264 @ 000002ef052875c0] frame I:1     Avg QP:21.88  size:271343\n[libx264 @ 000002ef052875c0] frame P:38    Avg QP:23.90  size:113436\n[libx264 @ 000002ef052875c0] frame B:111   Avg QP:27.47  size: 16767\n[libx264 @ 000002ef052875c0] consecutive B-frames:  0.7%  1.3%  2.0% 96.0%\n[libx264 @ 000002ef052875c0] mb I  I16..4:  3.5% 93.2%  3.3%\n[libx264 @ 000002ef052875c0] mb P  I16..4:  0.8% 10.0%  1.0%  P16..4: 41.2% 29.5% 13.2%  0.0%  0.0%    skip: 4.3%\n[libx264 @ 000002ef052875c0] mb B  I16..4:  0.0%  0.1%  0.0%  B16..8: 49.1%  6.6%  1.6%  direct: 3.1%  skip:39.5%  L0:32.4% L1:41.8% BI:25.8%\n[libx264 @ 000002ef052875c0] 8x8 transform intra:86.1% inter:66.2%\n[libx264 @ 000002ef052875c0] direct mvs  spatial:91.0% temporal:9.0%\n[libx264 @ 000002ef052875c0] coded y,uvDC,uvAC intra: 85.6% 75.1% 33.9% inter: 20.5% 14.7% 0.6%\n[libx264 @ 000002ef052875c0] i16 v,h,dc,p: 34%  9%  9% 49%\n[libx264 @ 000002ef052875c0] i8 v,h,dc,ddl,ddr,vr,hd,vl,hu: 11% 10%  8%  8% 13% 10% 15% 10% 15%\n[libx264 @ 000002ef052875c0] i4 v,h,dc,ddl,ddr,vr,hd,vl,hu: 14%  5%  3%  7% 17% 14% 18%  9% 12%\n[libx264 @ 000002ef052875c0] i8c dc,h,v,p: 48% 25% 16% 12%\n[libx264 @ 000002ef052875c0] Weighted P-Frames: Y:7.9% UV:0.0%\n[libx264 @ 000002ef052875c0] ref P L0: 71.8% 14.4% 11.1%  1.4%  1.1%  0.1%\n[libx264 @ 000002ef052875c0] ref B L0: 97.3%  2.3%  0.3%  0.1%\n[libx264 @ 000002ef052875c0] ref B L1: 99.6%  0.4%\n[libx264 @ 000002ef052875c0] kb/s:10308.86\n",
  "seconds": 10.419939756393433,
  "probe_out": {}
}